<?xml version="1.0"?>
<svg width="680" height="480" xmlns="http://www.w3.org/2000/svg" xmlns:svg="http://www.w3.org/2000/svg" xmlns:xlink="http://www.w3.org/1999/xlink">
 <!-- Created with SVG-edit - http://svg-edit.googlecode.com/ -->
 <defs>
  <symbol id="svg_21" stroke="null" xmlns:svg="http://www.w3.org/2000/svg" xmlns="http://www.w3.org/2000/svg">
   <!-- Created with SVG-edit - http://svg-edit.googlecode.com/ -->
   <defs>
    <linearGradient id="svg_15">
     <stop stop-color="#FF0000" offset="0"/>
     <stop stop-color="#000000" stop-opacity="0.99609" offset="1"/>
    </linearGradient>
    <radialGradient id="svg_20" spreadMethod="pad">
     <stop stop-color="#FF0000" offset="0"/>
     <stop stop-color="#000000" stop-opacity="0.99609" offset="1"/>
    </radialGradient>
    <radialGradient id="svg_19" spreadMethod="reflect" cx="0.5" cy="0.5" r="0.5">
     <stop stop-color="#FF0000" offset="0"/>
     <stop stop-color="#000000" stop-opacity="0.99609" offset="1"/>
    </radialGradient>
    <radialGradient id="svg_18" spreadMethod="repeat" cx="0.5" cy="0.5" r="0.5">
     <stop stop-color="#FF0000" offset="0"/>
     <stop stop-color="#000000" stop-opacity="0.99609" offset="1"/>
    </radialGradient>
    <radialGradient id="svg_17" spreadMethod="repeat" cx="0.5" cy="0.5" r="0.5" gradientTransform="rotate(-28.338362068965516,0.5,0.5) translate(0,0.30463362068965516) scale(1,0.3907327586206897)">
     <stop stop-color="#FF0000" offset="0"/>
     <stop stop-color="#000000" stop-opacity="0.99609" offset="1"/>
    </radialGradient>
    <radialGradient id="svg_13" spreadMethod="repeat" cx="0.5" cy="0.5" r="0.5" gradientTransform="rotate(0.2133620689655258,0.5,0.5) translate(0,0.305) scale(1,0.39)">
     <stop stop-color="#FF0000" offset="0"/>
     <stop stop-color="#000000" stop-opacity="0.99609" offset="1"/>
    </radialGradient>
   </defs>
   <g id="svg_23" stroke="null">
    <title>Layer 1</title>
    <polyline id="svg_25" fill="none" stroke="black" stroke-width="3" points="650,20 650,70 610,70 610,120 650,300"/>
    <rect fill="#FF0000" stroke-width="5" x="32" y="23" width="79" height="35" id="svg_16" stroke="#000000"/>
    <circle fill="url(#svg_15)" stroke-width="5" cx="186" cy="36" r="25.4951" id="svg_14" stroke="#000000"/>
    <ellipse fill="url(#svg_13)" stroke-width="5" cx="334" cy="68.5" id="svg_12" rx="67" ry="62.5" stroke="#000000"/>
    <line fill="none" stroke-width="5" stroke-dasharray="null" stroke-linejoin="null" stroke-linecap="null" x1="20" y1="86" x2="220.03838" y2="86" id="svg_11" stroke="#000000"/>
    <line fill="none" stroke-width="5" stroke-dasharray="null" stroke-linejoin="null" stroke-linecap="null" x1="420" y1="27" x2="419" y2="108" id="svg_10" stroke="#000000"/>
    <path fill="none" stroke-width="5" stroke-dasharray="null" stroke-linejoin="null" stroke-linecap="null" d="m31,261c105,-45 154,9 154,9c0,0 -101,35 -101,35c0,0 98,27 98,27c0,0 -155,-5 -155,-5c0,0 4,-66 4,-66z" id="svg_9" stroke="#000000"/>
    <polygon id="svg_8" fill="none" points="167.19314575195312,161 117.9998779296875,228.70870971679688 38.403533935546875,202.84628295898438 38.403533935546875,119.15371704101562 117.9998779296875,93.29129791259766 167.19314575195312,161 " stroke-width="5" stroke="#000000"/>
    <polygon id="svg_7" fill="none" points="601.4281616210938,152.49996948242188 463.3993225097656,232.19091796875 463.3993225097656,72.80902099609375 601.4281616210938,152.49996948242188 " stroke-width="24" transform="rotate(90 532.4137573242189,152.499984741211) " stroke-linejoin="round" stroke-linecap="round" opacity="0.75" stroke="#000000"/>
    <polygon id="svg_6" fill="none" points="98,341.2473449707031 114.87005615234375,389.7803649902344 166.24082946777344,390.82720947265625 125.29634094238281,421.8691101074219 140.17515563964844,471.04913330078125 98,441.7010498046875 55.82484436035156,471.04913330078125 70.70366668701172,421.8691101074219 29.75916290283203,390.82720947265625 81.12993621826172,389.7803649902344 98,341.2473449707031 114.87005615234375,389.7803649902344 " stroke-width="5" stroke="#000000"/>
    <path fill="none" stroke-width="5" stroke-dasharray="null" stroke-linejoin="null" stroke-linecap="null" id="svg_5" d="m333,261c-2.428497,-0.87851 -3.429352,-0.947418 -3.984009,-0.963989c-1.171753,-0.035004 -1.771484,-0.032867 -2.367981,-0.034668c-1.684174,-0.005096 -2.197357,-0.001343 -3.182678,-0.001343c-0.977325,0 -1.480499,-0.000885 -3.131989,0c-0.62085,0.000336 -1.286804,0.000214 -2.002502,0.018005c-0.770996,0.019165 -1.602325,0.056458 -2.497498,0.126007c-0.966644,0.075073 -2.011688,0.163391 -4.333344,0.522644c-1.297241,0.200745 -2.67511,0.468719 -4.132507,0.770996c-1.536072,0.318573 -3.139832,0.680969 -4.807495,1.077026c-1.730743,0.411041 -3.516815,0.847931 -7.226654,1.818665c-1.920013,0.502411 -3.866119,1.03186 -5.830505,1.571991c-1.972961,0.54248 -3.940765,1.09314 -5.893494,1.644012c-1.927612,0.543793 -3.817474,1.082184 -7.442688,2.11731c-1.714203,0.489471 -3.353088,0.958221 -4.912476,1.401001c-1.473938,0.418518 -2.857758,0.809418 -4.147522,1.167023c-1.188629,0.329559 -2.269653,0.635651 -4.106659,1.098663c-0.740387,0.186615 -1.373901,0.3302 -1.909485,0.442505c-0.447235,0.093781 -0.819641,0.161774 -1.126526,0.217499c-0.252777,0.045898 -0.467834,0.068604 -0.797333,0.173309c-0.148102,0.047058 -0.285339,0.115448 -0.414001,0.195007c-0.130219,0.080505 -0.254639,0.177673 -0.377991,0.285004c-0.129425,0.11261 -0.259552,0.239075 -0.541321,0.519989c-0.155151,0.154694 -0.319458,0.319397 -0.486023,0.499512c-0.174896,0.189117 -0.351685,0.392944 -0.521973,0.616486c-0.177277,0.232727 -0.362885,0.477692 -0.658691,1.05069c-0.156982,0.304077 -0.287048,0.636993 -0.413986,0.985504c-0.131927,0.362183 -0.253754,0.743317 -0.378006,1.138489c-0.128448,0.408508 -0.251709,0.832916 -0.541351,1.70932c-0.150879,0.456573 -0.317947,0.921997 -0.481476,1.404022c-0.168533,0.496643 -0.337494,1.010773 -0.490524,1.547974c-0.158218,0.555481 -0.325256,1.132813 -0.528,2.381348c-0.107559,0.662384 -0.170609,1.359314 -0.20549,2.084991c-0.03627,0.754517 -0.035736,1.540466 0.001511,2.355011c0.038651,0.845673 0.093628,1.725037 0.370667,3.559998c0.14592,0.966522 0.346313,1.95047 0.576004,2.944489c0.231583,1.002136 0.495621,1.99649 0.791992,2.971497c0.291199,0.958099 0.575546,1.894867 1.29866,3.584015c0.334106,0.780457 0.707489,1.49646 1.095001,2.161499c0.373077,0.640289 0.772369,1.239777 1.184998,1.810486c0.407532,0.56366 0.83606,1.108551 1.720001,2.194672c0.452484,0.556 0.915222,1.115356 1.3815,1.677002c0.465729,0.561005 0.929871,1.115631 1.390503,1.658997c0.450409,0.531281 0.886108,1.047852 1.727997,1.997345c0.388123,0.437744 0.76181,0.847382 1.132507,1.223999c0.356232,0.361908 0.715118,0.700439 1.087494,1.007996c0.369507,0.305176 0.74939,0.607758 1.613342,1.101349c0.456238,0.260651 0.954956,0.488831 1.480499,0.704987c0.545135,0.224213 1.121185,0.427795 1.723511,0.61499c0.621368,0.193085 1.266022,0.380341 2.629333,0.680023c0.707642,0.155579 1.438751,0.286346 2.189941,0.404999c0.76886,0.12149 1.559387,0.225952 2.370056,0.315002c0.829346,0.091095 1.678955,0.17627 3.440002,0.279999c0.90921,0.053558 1.837219,0.084991 2.780975,0.109497c0.957581,0.024872 1.927307,0.03833 2.907013,0.046478c0.987671,0.008209 1.981323,0.01001 3.978668,0.010681c1.001343,0.000336 2.010681,0 3.036011,0c1.049316,0 2.130646,0 3.251984,0c1.16925,0 2.394501,0 5.045349,0c1.438477,0 2.947998,0 4.519501,0c1.624451,0 3.292999,0 4.99649,0c1.72937,0 3.47583,0 6.984009,0c1.743835,0 3.470612,0 5.173431,0c1.671661,0 3.305481,0 4.89447,0c1.536682,0 3.01474,0 5.76532,0c1.263031,0 2.46521,0 3.62558,0c1.137177,0 2.270111,0 3.418518,0c1.182159,0 2.417328,0 5.122681,0c1.503479,0 3.108002,0 4.804321,0c1.77948,0 3.633179,0 5.551422,0c1.974548,0 3.996002,0.000671 8.144012,0c2.108002,-0.000336 4.22403,0.000763 6.335999,-0.018005c2.096039,-0.018616 4.164429,-0.052246 6.192047,-0.126007c1.976471,-0.071899 3.89563,-0.123016 7.472198,-0.522644c1.654572,-0.184875 3.208221,-0.451569 4.663422,-0.757507c1.373016,-0.288666 2.65387,-0.621857 3.84433,-0.982513c1.11853,-0.338745 2.15979,-0.683929 3.992004,-1.426666c0.820923,-0.332733 1.571747,-0.671539 2.248505,-1.027496c0.631012,-0.331879 1.203796,-0.682129 1.699493,-1.072479c0.473328,-0.372742 0.935455,-0.760468 1.552002,-1.733337c0.315613,-0.498138 0.541565,-1.065613 0.706482,-1.657501c0.167847,-0.602448 0.259827,-1.237457 0.265503,-1.882507c0.005768,-0.654572 -0.013916,-1.34317 -0.471985,-2.62677c-0.236908,-0.66391 -0.613129,-1.2948 -1.046997,-1.90506c-0.448608,-0.63089 -0.980865,-1.233521 -1.569,-1.81485c-0.606445,-0.59967 -1.258636,-1.19165 -2.717346,-2.28009c-0.752289,-0.56131 -1.549164,-1.08725 -2.367004,-1.600403c-0.82486,-0.517609 -1.670532,-1.011047 -2.528992,-1.48349c-0.856323,-0.471252 -1.71347,-0.929718 -3.437347,-1.749329c-0.840637,-0.399689 -1.678223,-0.766998 -2.505005,-1.119019c-0.813232,-0.346649 -1.619293,-0.67453 -2.414978,-0.992981c-0.784332,-0.314209 -1.561462,-0.61499 -3.080017,-1.221344c-0.746399,-0.298035 -1.48465,-0.600311 -2.222992,-0.895508c-0.739014,-0.295471 -1.48349,-0.588531 -2.240997,-0.8685c-0.767853,-0.283783 -1.549866,-0.574951 -3.202667,-1.069427c-0.860962,-0.25766 -1.75528,-0.487518 -2.675995,-0.70047c-0.940643,-0.217682 -1.905701,-0.412811 -2.891998,-0.583679c-1.001099,-0.173187 -2.018097,-0.340759 -4.098663,-0.549316c-1.053284,-0.105591 -2.117004,-0.169769 -3.186005,-0.218994c-1.072357,-0.049438 -2.147278,-0.07666 -3.222015,-0.093018c-1.072601,-0.016296 -2.141327,-0.019989 -4.258667,-0.021332c-1.045837,-0.000641 -2.08667,0 -3.127502,0c-1.045807,0 -2.101654,0 -3.172485,0c-1.09082,0 -2.206665,-0.000458 -4.533325,0c-1.219757,0.000244 -2.477448,-0.000061 -3.771057,0.013519c-1.327789,0.01413 -2.687592,0.04068 -4.077148,0.094482c-1.41803,0.054962 -2.864868,0.108917 -5.818512,0.391998c-1.5112,0.144989 -3.035309,0.346069 -4.567474,0.580719c-1.541168,0.23587 -3.080811,0.511139 -4.612488,0.823517c-1.526764,0.311371 -3.043854,0.630829 -5.986664,1.429352c-1.441101,0.391022 -2.850677,0.828186 -4.233002,1.303497c-1.375153,0.472839 -2.732544,0.991852 -4.070984,1.564484c-1.347168,0.576111 -2.703857,1.178406 -5.362671,2.632019c-1.367981,0.747711 -2.716034,1.576721 -4.063507,2.425476c-1.34726,0.848602 -2.666901,1.718506 -3.964508,2.578522c-1.268005,0.840393 -2.481415,1.677826 -4.805328,3.162659c-1.064178,0.679962 -2.07724,1.291016 -3.034485,1.843506c-0.892426,0.515076 -1.733368,0.97467 -2.521515,1.384491c-0.728455,0.378784 -1.404572,0.718292 -2.610657,1.272003c-0.523804,0.240479 -1.007355,0.446442 -1.44751,0.641998c-0.406464,0.180573 -0.785095,0.351379 -1.132507,0.533997c-0.334229,0.17569 -0.666656,0.350128 -1.253326,0.824005c-0.311035,0.251251 -0.604584,0.550537 -0.895508,0.87149c-0.300018,0.330994 -0.588409,0.687408 -0.8685,1.060516c-0.283691,0.377899 -0.562347,0.764496 -1.069366,1.567993c-0.25061,0.397217 -0.486908,0.80246 -0.7005,1.222504c-0.217102,0.426697 -0.415131,0.877472 -0.583618,1.357483c-0.175812,0.50177 -0.348297,1.039856 -0.549408,2.253357c-0.111206,0.671051 -0.170502,1.392761 -0.218872,2.152496c-0.050659,0.793671 -0.076752,1.618225 -0.093079,2.467499c-0.016541,0.86911 -0.020111,1.753326 -0.021301,3.546661c-0.00058,0.899506 -0.000092,1.79599 0.004608,2.686493c0.004669,0.8815 0.013062,1.751068 0.031403,2.605499c0.018127,0.836578 0.031769,1.653015 0.130768,3.208008c0.046692,0.73642 0.113861,1.44754 0.199402,2.137512c0.083832,0.676758 0.18866,1.343079 0.316559,2.002502c0.12851,0.662384 0.268219,1.332428 0.650757,2.693329c0.200592,0.713684 0.437012,1.450226 0.734985,2.203491c0.314636,0.795471 0.702026,1.62085 1.184998,2.464508c0.519104,0.906799 1.11026,1.879181 2.746674,3.832001c0.925598,1.104553 2.023987,2.215607 3.248993,3.361481c1.312653,1.227875 2.775726,2.472351 4.382996,3.730499c1.704681,1.334412 3.533569,2.720734 7.701355,5.40802c2.240753,1.444855 4.625671,2.838135 7.081482,4.222504c2.476227,1.395874 4.972656,2.731232 7.45047,3.997498c2.403412,1.228271 4.704651,2.400757 8.968048,4.279999c1.845886,0.81366 3.532227,1.474976 5.057922,2.023499c1.365662,0.490997 2.605591,0.882813 3.725922,1.204498c1.008759,0.289612 1.934052,0.508057 3.549438,0.93866c0.729492,0.194519 1.42511,0.400482 2.106049,0.613495c0.687042,0.214966 1.393829,0.449463 2.141998,0.694519c0.805847,0.263977 1.684448,0.559387 3.751953,1.191986c1.211029,0.370514 2.54187,0.75824 3.981049,1.153503c1.528809,0.419891 3.141052,0.837616 4.826996,1.234497c1.738129,0.40918 3.517975,0.831818 7.191986,1.445343c1.849426,0.308838 3.710022,0.539459 5.568024,0.720001c1.846222,0.179382 3.681213,0.299683 5.495972,0.359985c1.787476,0.059387 3.546906,0.104553 6.935974,-0.079987c1.626251,-0.088562 3.197327,-0.256195 4.70697,-0.466522c1.453186,-0.202454 2.838837,-0.452118 4.149078,-0.745483c1.244446,-0.278656 2.423431,-0.551178 4.477325,-1.287994c0.915741,-0.328522 1.738129,-0.698914 2.463013,-1.104004c0.672241,-0.375671 1.266052,-0.789246 1.760986,-1.248016c0.470398,-0.436005 0.914886,-0.897339 1.442657,-1.981323c0.266205,-0.546722 0.425537,-1.153168 0.542999,-1.776001c0.120514,-0.639099 0.178467,-1.306793 0.201019,-1.991974c0.023102,-0.70224 0.013977,-1.42218 -0.077332,-2.89859c-0.046661,-0.754669 -0.114471,-1.512848 -0.199524,-2.268097c-0.084351,-0.74881 -0.186096,-1.483795 -0.316498,-2.195953c-0.126312,-0.68985 -0.238495,-1.360657 -0.650665,-2.53595c-0.187561,-0.53479 -0.427124,-1.019958 -0.698975,-1.46109c-0.267395,-0.433929 -0.583435,-0.838837 -0.933014,-1.22699c-0.362946,-0.402771 -0.771759,-0.802216 -1.701324,-1.645111c-0.516052,-0.468109 -1.073456,-0.956909 -1.675507,-1.453491c-0.628479,-0.518402 -1.295319,-1.037628 -2.008514,-1.534668c-0.730469,-0.508911 -1.479736,-1.03537 -3.149323,-1.845428c-0.849701,-0.41217 -1.749451,-0.740509 -2.666901,-1.037811c-0.925568,-0.30014 -1.87265,-0.55368 -2.82901,-0.78598c-0.958221,-0.23291 -1.922668,-0.437714 -3.83728,-0.842621c-0.94519,-0.19989 -1.88208,-0.399841 -2.814148,-0.591003c-0.926819,-0.190125 -1.851532,-0.373322 -2.777832,-0.536987c-0.9263,-0.163818 -1.855133,-0.330383 -3.741241,-0.538818c-0.952728,-0.105042 -1.913025,-0.16922 -2.872559,-0.22348c-0.95401,-0.053711 -1.898499,-0.0896 -2.827454,-0.12439c-0.909149,-0.03421 -1.79425,-0.05188 -3.466675,-0.15213c-0.781311,-0.046967 -1.526794,-0.11438 -2.242493,-0.18161c-0.690979,-0.06485 -1.361359,-0.13443 -2.017487,-0.19046c-0.645538,-0.05481 -1.286194,-0.11969 -2.573334,-0.12793c-0.65506,-0.00412 -1.32077,0.03067 -1.994995,0.090149c-0.685944,0.060455 -1.381439,0.151001 -2.085022,0.269989c-0.716583,0.121002 -1.446075,0.25589 -2.919983,0.639862c-0.758331,0.19754 -1.522461,0.432709 -2.295013,0.689911c-0.787567,0.262421 -1.582672,0.553101 -2.38501,0.870239c-0.81778,0.322998 -1.648438,0.66153 -3.319977,1.43985c-0.858795,0.399841 -1.716492,0.831268 -2.576996,1.271912c-0.862183,0.441772 -1.715424,0.893311 -2.559021,1.343994c-0.831024,0.44397 -1.640869,0.886017 -3.197327,1.717316c-0.734467,0.392273 -1.443665,0.763458 -2.123993,1.128021c-0.658325,0.352814 -1.295807,0.69986 -1.90802,1.056c-0.600464,0.349304 -1.196503,0.691772 -2.301331,1.482758c-0.55423,0.39682 -1.084015,0.829773 -1.60498,1.271912c-0.519073,0.440552 -1.021301,0.89325 -1.515015,1.343994c-0.486237,0.443939 -0.953125,0.890289 -1.880005,1.717316c-0.441742,0.394379 -0.879364,0.764771 -1.304993,1.123505c-0.414398,0.349243 -0.821625,0.687103 -1.214996,1.024506c-0.386627,0.331635 -0.774048,0.653503 -1.480011,1.35199c-0.351807,0.348083 -0.685303,0.714783 -0.996002,1.099548c-0.31073,0.384979 -0.598846,0.78949 -0.85199,1.216461c-0.254456,0.429382 -0.508789,0.873169 -0.818665,1.850769c-0.159485,0.503021 -0.255951,1.04068 -0.306,1.59906c-0.052063,0.58078 -0.046051,1.194092 0.018005,1.833069c0.06778,0.674591 0.169189,1.39267 0.621429,2.901337c0.248291,0.828735 0.587738,1.687836 0.98407,2.584503c0.421509,0.953369 0.919128,1.943756 1.488068,2.971497c0.602997,1.089233 1.263,2.232941 2.861328,4.610687c0.864227,1.285675 1.81601,2.589386 2.820007,3.911987c1.022491,1.346954 2.085236,2.680847 3.179993,3.984009c1.082123,1.288147 2.141754,2.552856 4.333344,4.77066c1.014801,1.027069 2.03183,1.944641 3.023987,2.785492c0.947144,0.802673 1.887146,1.534393 2.808014,2.218506c0.892029,0.662689 1.780975,1.280701 3.50119,2.496002c0.84729,0.598541 1.68811,1.202911 2.53656,1.804504c0.857117,0.607788 1.730591,1.221588 2.63559,1.831482c0.929291,0.626617 1.889587,1.275391 3.994659,2.53067c1.120331,0.668152 2.304291,1.322632 3.533997,1.972504c1.255707,0.663666 2.544373,1.308807 3.858002,1.927521c1.315765,0.61969 2.628937,1.234375 5.274658,2.26651c1.281891,0.500061 2.55188,0.934113 3.796509,1.324402c1.207642,0.378693 2.388,0.70813 3.535492,0.991638c1.10376,0.2724 2.166199,0.52298 4.167999,0.850769c0.923096,0.151001 1.803162,0.252777 2.638519,0.328461c0.792786,0.071899 1.548767,0.11441 2.269501,0.139526c0.688324,0.023804 1.347992,0.030182 2.59198,0.032013c0.590332,0.000885 1.162689,0.000061 1.719025,-0.004669c0.542358,-0.0047 1.07251,-0.013031 1.592987,-0.031342c0.512451,-0.018188 1.019928,-0.035278 2.021332,-0.130798c0.500061,-0.04776 0.995056,-0.11438 1.481781,-0.185852c0.47583,-0.070038 0.934631,-0.147339 1.373962,-0.222168l0.415344,-0.07251l0.387329,-0.068665" stroke="#000000"/>
    <text fill="#000000" stroke-width="0" stroke-dasharray="null" stroke-linejoin="null" stroke-linecap="null" x="515" y="288" id="svg_4" font-size="24" font-family="serif" text-anchor="middle" xml:space="preserve" stroke="#000000">TEXTO</text>
    <line fill="none" stroke-width="3" stroke-dasharray="2,2" stroke-linejoin="round" x1="449" y1="397" x2="605.01282" y2="397" id="svg_3" stroke="#000000"/>
    <line fill="none" stroke-dasharray="5,2,2,2,2,2" stroke-linecap="round" x1="448.99359" y1="347.5" x2="605.00641" y2="347.5" id="svg_2" stroke="#000000"/>
    <line fill="none" stroke-width="24" stroke-dasharray="5,2,2,2" stroke-linejoin="round" opacity="0.75" x1="448.99359" y1="439.5" x2="605.00641" y2="439.5" id="svg_1" stroke="#000000"/>
   </g>
  </symbol>
 </defs>
 <g stroke="null">
  <title>Layer 1</title>
  <use x="22.7067" y="16.73125" transform="matrix(0.8367573831733708,0,0,0.8367573831733708,-8.946050175540933,-0.7314468111137415) " xlink:href="#svg_21" id="svg_22" stroke="null"/>
 </g>
</svg>